Coordinates
version=1
nRows=5
nColumns=42
inDegrees=yes

Units are S.I. units (second, meters, Newtons, ...)
If the header above contains a line with 'inDegrees', this indicates whether rotational values are in degrees (yes) or radians (no).

endheader
time	pelvis_tilt	pelvis_list	pelvis_rotation	pelvis_tx	pelvis_ty	pelvis_tz	hip_flexion_r	hip_adduction_r	hip_rotation_r	knee_angle_r	knee_adduction_r	knee_angle_r_beta	ankle_angle_r	subtalar_angle_r	mtp_angle_r	hip_flexion_l	hip_adduction_l	hip_rotation_l	knee_angle_l	knee_adduction_l	knee_angle_l_beta	ankle_angle_l	subtalar_angle_l	mtp_angle_l	lumbar_extension	lumbar_bending	lumbar_rotation	arm_flex_r	arm_add_r	arm_rot_r	elbow_flex_r	pro_sup_r	wrist_flex_r	wrist_dev_r	arm_flex_l	arm_add_l	arm_rot_l	elbow_flex_l	pro_sup_l	wrist_flex_l	wrist_dev_l
      2.15000000	     20.25375181	     -1.07113104	      4.11056474	      0.42394021	      0.94317022	     -0.34750153	     -8.89532902	      4.50708019	    -28.38637889	     21.38499875	     -8.28076673	      0.37323864	     13.80588967	     36.93444317	     -7.52112854	    -24.47675786	      0.23920906	     -5.19881505	     44.05688637	      6.66631953	      0.76893773	     11.04732447	    -10.35540957	     -7.52112854	    -35.44971086	     -1.08898266	      1.17729051	      6.18431451	     -8.75787301	    -35.78677785	     24.26598108	     90.00000001	      0.00000000	      0.00000000	      1.44162895	    -20.46809250	      7.56734765	     71.11395487	     90.00000001	      0.00000000	      0.00000000
      2.16000000	     20.08969521	     -1.18737412	      4.30987010	      0.42871858	      0.94328486	     -0.34858938	     -9.14743355	      4.65988593	    -28.14346800	     21.21316679	     -8.13072660	      0.37023961	     14.01871509	     36.69480912	     -7.52067632	    -22.92861189	     -0.47944006	     -5.61889060	     46.51778629	      6.58720531	      0.81188853	     10.86197985	    -11.72458104	     -7.52067632	    -35.29039351	     -0.93206032	      1.18907257	      6.70607394	     -8.83235641	    -35.26418558	     24.74514607	     90.00000001	      0.00000000	      0.00000000	      1.54330235	    -20.48044154	      7.56524860	     71.37081258	     90.00000001	      0.00000000	      0.00000000
      2.17000000	     19.89483366	     -1.30504703	      4.45444686	      0.43337883	      0.94331241	     -0.34961675	     -9.27987033	      4.81733864	    -27.86659390	     21.17626495	     -8.09250945	      0.36959555	     14.25526502	     36.30306639	     -7.51795214	    -21.33549616	     -1.18653560	     -5.89211575	     48.67363517	      6.60772387	      0.84951519	     10.55851722	    -13.68691455	     -7.51795214	    -35.12177710	     -0.80739833	      1.28111221	      6.71845668	     -9.14355832	    -31.86869957	     25.80123440	     90.00000001	      0.00000000	      0.00000000	      1.69845917	    -20.41502695	      7.54215403	     71.53801309	     90.00000001	      0.00000000	      0.00000000
      2.18000000	     19.87508748	     -1.24742490	      4.68168469	      0.43813660	      0.94367700	     -0.35100427	     -9.75985746	      4.73065628	    -27.49117309	     20.98552533	     -7.73928624	      0.36626651	     14.53229084	     36.06632426	     -7.51766515	    -19.97126652	     -1.60790106	     -6.24103391	     50.33084354	      6.10870631	      0.87843894	     10.90765729	    -14.65321341	     -7.51766515	    -35.14269590	     -0.78180926	      1.19724327	      7.31142931	     -9.18263713	    -31.60875590	     26.32724524	     90.00000001	      0.00000000	      0.00000000	      1.81888156	    -20.42871898	      7.59967178	     71.79561417	     90.00000001	      0.00000000	      0.00000000
      2.19000000	     19.67162052	     -1.40891124	      4.79735378	      0.44272779	      0.94362974	     -0.35188734	     -9.88850915	      4.99105908	    -26.98524186	     20.89314943	     -7.71982847	      0.36465425	     14.78044947	     35.47456215	     -7.51723897	    -18.27809599	     -2.33787912	     -6.86484329	     51.99723725	      5.67043181	      0.90752299	     11.05536891	    -15.80825539	     -7.51723897	    -34.97734993	     -0.64606366	      1.33322596	      7.84344794	     -9.25989076	    -31.00332695	     26.98390130	     90.00000001	      0.00000000	      0.00000000	      1.95259322	    -20.41513204	      7.63814914	     71.99184359	     90.00000001	      0.00000000	      0.00000000
